<svg width="110" height="110" viewBox="0 0 110 110" fill="none" xmlns="http://www.w3.org/2000/svg">
  <defs>
    <linearGradient id="cellaBgGradient" x1="0" y1="0" x2="1" y2="1">
      <stop offset="0%" stop-color="#7c3aed"/>
      <stop offset="100%" stop-color="#a855f7"/>
    </linearGradient>
  </defs>
  <rect width="110" height="110" rx="24" ry="24" fill="url(#cellaBgGradient)"/>
  <g transform="translate(22 22) scale(0.6)">
    <!-- Right wall -->
    <path d="M100.927 43.6597V70.0057C100.927 72.4889 100.27 74.928 99.024 77.0757C97.7774 79.2234 95.9852 81.0033 93.829 82.235L56.0297 103.816L55 104.403V69.8957L81.0822 54.9999L95.6094 46.6989V46.6938L100.927 43.6597Z" fill="white"/>
    <!-- Left wall -->
    <path d="M54.9998 69.9062V104.408L53.9752 103.827L16.1708 82.2353C14.0146 81.0036 12.2224 79.2237 10.9758 77.076C9.7293 74.9283 9.07275 72.4892 9.07275 70.006V43.6406L12.7781 45.7591C12.9688 45.8941 13.1667 46.0185 13.3709 46.1319L15.4293 47.3063L28.9084 55.0053L54.9998 69.9011V69.9062Z" fill="white"/>
    <!-- Top wall -->
    <path d="M54.9998 5.5918V40.1043L28.9084 55.0052L15.4293 47.3062L15.4446 47.2808L12.7781 45.7591L9.07275 43.6406V39.9943C9.07275 39.7112 9.08294 39.4331 9.10331 39.154C9.24103 36.8176 9.95948 34.5524 11.1936 32.5637C12.4277 30.575 14.1384 28.9256 16.1708 27.7649L53.9701 6.17846L54.9998 5.5918Z" fill="white"/>
    <!-- Seam highlights (matching the lighter end of the gradient) -->
    <path d="M56.0297 98.2808V103.816L54.9999 104.403V104.408H54.9948V104.403L53.9702 103.822V98.2808H56.0297Z" fill="#a855f7"/>
    <path d="M54.9999 5.5918V11.7192H53.9702V6.17846L54.9999 5.5918Z" fill="#a855f7"/>
    <path d="M14.42 46.6941V49.0714L9.07275 46.0128V43.6406L12.7781 45.7591L14.42 46.6941Z" fill="#a855f7"/>
    <path d="M95.5796 46.6941V49.0714L100.927 46.0128V43.6406L97.2214 45.7591L95.5796 46.6941Z" fill="#a855f7"/>
    <path d="M55 69.9009V72.2781L49.6537 69.2195L40.7651 64.1371V61.769L49.6537 66.8474L55 69.9009Z" fill="#a855f7"/>
    <path d="M80.3359 55.4229V57.7807L69.2299 64.1373L54.9951 72.2783V69.9011L60.3423 66.8476L61.6155 66.1214L69.2299 61.7692L80.3359 55.4229Z" fill="#a855f7"/>
  </g>
</svg>
